<?xml version="1.0" encoding="UTF-8" standalone="no"?>
<!-- Created with Inkscape (http://www.inkscape.org/) -->

<svg
   xmlns:dc="http://purl.org/dc/elements/1.1/"
   xmlns:cc="http://creativecommons.org/ns#"
   xmlns:rdf="http://www.w3.org/1999/02/22-rdf-syntax-ns#"
   xmlns:svg="http://www.w3.org/2000/svg"
   xmlns="http://www.w3.org/2000/svg"
   xmlns:sodipodi="http://sodipodi.sourceforge.net/DTD/sodipodi-0.dtd"
   xmlns:inkscape="http://www.inkscape.org/namespaces/inkscape"
   width="210mm"
   height="297mm"
   viewBox="0 0 210 297"
   version="1.1"
   id="svg8"
   sodipodi:docname="fabula.svg"
   inkscape:version="0.92.5 (2060ec1f9f, 2020-04-08)">
  <defs
     id="defs2" />
  <sodipodi:namedview
     id="base"
     pagecolor="#ffffff"
     bordercolor="#666666"
     borderopacity="1.0"
     inkscape:pageopacity="0.0"
     inkscape:pageshadow="2"
     inkscape:zoom="0.35"
     inkscape:cx="-572.85714"
     inkscape:cy="560"
     inkscape:document-units="mm"
     inkscape:current-layer="layer1"
     showgrid="false"
     inkscape:snap-global="false"
     inkscape:window-width="1920"
     inkscape:window-height="1037"
     inkscape:window-x="0"
     inkscape:window-y="0"
     inkscape:window-maximized="1" />
  <metadata
     id="metadata5">
    <rdf:RDF>
      <cc:Work
         rdf:about="">
        <dc:format>image/svg+xml</dc:format>
        <dc:type
           rdf:resource="http://purl.org/dc/dcmitype/StillImage" />
      </cc:Work>
    </rdf:RDF>
  </metadata>
  <g
     inkscape:label="Camada 1"
     inkscape:groupmode="layer"
     id="layer1">
    <path
       id="path121"
       d="m 40.338233,231.84878 c 2.27625,-4.70601 3.944538,-9.68701 6.318273,-14.34817 0.604751,-1.18752 1.282426,-2.33602 1.923646,-3.50403 4.207815,-6.55794 9.290565,-12.59115 15.015434,-17.86632 1.25381,-1.15532 2.574163,-2.23545 3.861245,-3.35317 7.975106,-6.34577 16.886822,-11.41529 25.883765,-16.13348 2.23326,-1.16711 3.42067,-1.7698 5.62158,-2.99096 0.93672,-0.51974 1.997924,-0.86924 2.794564,-1.58732 0.71116,-0.64103 -2.829564,2.26227 -2.531234,1.34995 0.33377,-1.02072 1.790554,-1.17357 2.672124,-1.78081 0.89986,-0.61983 1.78103,-1.26665 2.67155,-1.89998 3.9146,-2.92305 7.97428,-5.67211 11.6732,-8.8774 3.00972,-2.60805 3.51125,-3.26192 6.28672,-6.14731 7.67033,-8.42423 12.59304,-18.85918 17.74415,-28.92289 7.72074,-15.29514 14.21984,-31.162126 21.32679,-46.74433 4.91153,-10.479415 10.45224,-20.657205 16.50453,-30.512333 2.05321,-3.434165 4.42983,-6.640714 6.91907,-9.760863 0.4136,-0.523268 0.76913,-1.087709 1.14408,-1.638469 0,0 5.99571,-2.597998 5.99571,-2.597998 v 0 c -0.43874,0.537497 -0.78319,1.130714 -1.19839,1.687765 -2.56394,3.163176 -5.13169,6.325295 -7.24828,9.823168 -6.28511,9.833323 -11.95364,20.066355 -16.94259,30.626179 -7.22897,15.528625 -13.76385,31.376241 -21.30899,46.757271 -2.93123,5.95795 -3.17523,6.60748 -6.13445,12.09595 -1.57118,2.91407 -3.68949,6.75642 -5.52357,9.54164 -2.26515,3.4398 -3.07374,4.21564 -5.68122,7.29989 -2.67241,2.82781 -3.31508,3.63697 -6.213,6.19769 -3.6502,3.22546 -7.68728,5.96529 -11.57565,8.88212 -1.51487,1.09153 -3.73437,2.7328 -5.32961,3.71631 -5.388234,3.32202 -10.851354,6.52183 -16.497229,9.38201 -0.980197,0.516 -1.960401,1.032 -2.940599,1.548 0.720484,-0.45274 2.916045,-1.75075 2.161437,-1.35822 -1.132251,0.58898 -2.205437,1.28655 -3.296878,1.94886 -3.949706,2.39677 -7.847746,4.89978 -11.430285,7.83478 -1.290658,1.10622 -2.615207,2.17367 -3.871987,3.31865 -5.706708,5.19909 -10.739224,11.18519 -14.965639,17.64982 -0.643131,1.15431 -1.32429,2.288 -1.929394,3.46289 -2.354861,4.57228 -3.973668,9.46845 -6.011568,14.18076 0,0 -5.887305,2.72035 -5.887305,2.72035 z"
       inkscape:connector-curvature="0"
       style="stroke-width:0.17787008" />
    <path
       style="fill:#000000;fill-opacity:1;stroke:#71a5d7;stroke-width:0.17705081;stroke-opacity:0"
       id="path4662"
       d="m 41.819152,228.03451 c 2.795025,-3.79113 5.651066,-7.53526 8.561836,-11.23644 2.191253,-2.80239 4.701284,-5.3532 7.788375,-7.14444 7.392398,-4.28932 5.145498,-3.33443 9.951478,-5.07417 5.153875,-1.52026 10.56755,-1.38379 15.872693,-1.81346 6.650983,-0.52951 12.870652,-2.99119 18.960756,-5.5677 3.08859,-1.28841 6.00345,-2.93915 8.99997,-4.41996 0,0 -4.96891,4.00631 -4.96891,4.00631 v 0 c -2.91472,1.44316 -5.7877,2.97683 -8.800324,4.20999 -6.135618,2.54228 -12.401518,4.93038 -19.082929,5.42046 -5.302492,0.43307 -10.723247,0.37168 -15.844769,2.00567 -3.963998,1.53572 -2.183561,1.02654 0.641939,-1.01744 0.719158,-0.52023 -1.533537,0.89601 -2.256124,1.41137 -1.459168,1.04069 -2.672541,2.18605 -3.884681,3.50544 -0.603673,0.6571 -1.155274,1.36108 -1.732914,2.04162 -2.860044,3.6154 -5.665152,7.27555 -8.299332,11.0633 0,0 -5.907064,2.60945 -5.907064,2.60945 z"
       inkscape:connector-curvature="0" />
    <path
       id="path12"
       d="m 15.456273,270.27589 c 3.860613,-3.60488 7.35862,-7.58386 10.705553,-11.67142 3.730702,-5.26878 6.986523,-10.88415 9.718755,-16.74457 2.198564,-4.71574 3.570704,-8.2769 5.553075,-13.14948 1.139397,-3.13321 2.290129,-6.26224 3.418191,-9.39963 1.252698,-3.48403 2.417409,-7.00074 3.724037,-10.46452 6.90455,-18.30347 14.975095,-36.13694 23.020847,-53.94782 7.706301,-16.57528 16.160904,-32.90888 26.690045,-47.864 5.904234,-8.386106 8.327014,-10.908876 14.836044,-18.588153 8.11884,-9.093829 17.01966,-17.473951 26.81404,-24.705839 4.24681,-3.13573 6.03879,-4.15765 10.37423,-6.882901 5.91592,-3.864141 12.17016,-7.009803 18.59554,-9.86339 1.29661,-0.575834 2.61283,-1.106233 3.90568,-1.690608 3.23373,-1.461665 3.99643,-1.90199 7.12179,-3.507709 7.75483,-4.573477 0.48663,-0.246348 -0.21692,-3.56e-4 -0.84967,0.2971 1.5182,-0.973315 2.2709,-1.469954 1.46658,-0.967669 2.89829,-1.985897 4.3441,-2.984391 0,0 6.86114,-2.713479 6.86114,-2.713479 v 0 c -2.28025,1.521536 -4.49609,3.149979 -6.84013,4.572756 -2.91075,1.766756 -5.84058,3.501342 -8.7724,5.232207 -1.0354,0.611267 -2.08593,1.195999 -3.1289,1.793998 -3.37677,1.705317 -3.61908,1.875148 -7.11031,3.442919 -4.37613,1.965142 -3.48448,1.417144 -7.89184,3.524675 -1.39822,0.668604 -2.73662,1.467207 -4.16356,2.070763 -0.48622,0.205654 0.88387,-0.580316 1.3258,-0.870474 -4.38664,2.703139 -6.34432,3.80528 -10.63858,6.915999 -9.97728,7.227437 -19.05056,15.637929 -27.3327,24.779759 -6.64685,7.728122 -9.02232,10.146482 -15.0465,18.600478 -10.653804,14.95096 -19.169046,31.32673 -27.014721,47.90964 -6.139027,13.62481 -12.309062,27.24585 -17.808887,41.15166 -3.595591,9.09114 -5.236388,13.92531 -8.291653,22.90281 -1.052282,3.092 -2.078152,6.1931 -3.117227,9.28965 -1.856071,4.73136 -3.263054,8.49044 -5.315685,13.09335 -2.613256,5.86011 -5.798798,11.43537 -9.359819,16.75853 -3.22871,4.07577 -6.687711,7.95955 -10.352636,11.642 0,0 -6.877299,2.8375 -6.877299,2.8375 z"
       inkscape:connector-curvature="0"
       style="fill:#71a5d7;fill-opacity:0.98347108;stroke:#71a5d7;stroke-width:0.17705081;stroke-opacity:0" />
    <path
       style="fill:#71a5d7;fill-opacity:1;stroke:#71a5d7;stroke-width:0.17705081;stroke-opacity:0"
       id="path4686"
       d="m 110.45893,193.90049 c -2.85423,3.34094 -5.92416,6.46653 -9.14322,9.44683 -3.055124,2.73923 -6.207804,5.36969 -9.65556,7.59443 -2.959758,1.90985 -9.493504,5.58637 -11.285583,6.62099 -6.829735,3.83347 -13.893345,7.19765 -21.088949,10.26341 -4.874775,2.00867 -9.695859,4.17639 -14.724732,5.7704 -1.16541,0.41946 -2.352796,0.76184 -3.555247,1.05194 0,0 5.128781,-3.95363 5.128781,-3.95363 v 0 c 1.153802,-0.28643 2.290382,-0.63314 3.421108,-1.00151 4.917084,-1.5537 9.645958,-3.63633 14.411661,-5.59938 7.196956,-3.08609 14.256697,-6.48216 21.081191,-10.34369 -0.669684,0.40647 -2.681425,1.62132 -2.009051,1.21941 2.113454,-1.26335 3.668914,-2.16684 5.66314,-3.59118 2.44129,-1.74366 4.692297,-3.74163 6.963367,-5.69898 3.14697,-2.88315 6.154424,-5.90565 8.842094,-9.23609 0,0 5.951,-2.54295 5.951,-2.54295 z"
       inkscape:connector-curvature="0" />
  </g>
</svg>
